# xmcd CD database file
# Copyright (C) 1996 Ti Kan
#
# Track frame offsets:
# 	182
# 	16015
# 	42707
# 	54982
# 	77177
# 	89160
# 	100445
# 	116662
# 	128652
# 	151447
# 	176100
# 	192507
#
# Disc length: 2693 seconds
#
# Revision: 1
# Processed by: cddbd v1.4b41PL1 Copyright (c) Steve Scherf et al.
# Submitted via: DiscPlay 3.3.1
#
DISCID=a50a830c
DTITLE=Various Artist - Great Ladies Sing The Blues
DYEAR=1900
DGENRE=
TTITLE0=Billie Holliday--Good Morning Heartache
TTITLE1=Ella Fitzgerald--Love For Sale
TTITLE2=Nina Simone--Trouble In Mind
TTITLE3=Ella Fitzgerald and Louis Armstrong--Summertime
TTITLE4=Billie Holliday
TTITLE5=Dinah Washington--Cry Me A River
TTITLE6=Morgana King--I Know How It Feels To Be Lonely
TTITLE7=Nina Simone--Nobody Knows You When You  Are Down And Out
TTITLE8=Shirley Horn--I got It Bad And That Aint't Good
TTITLE9=Sarah Vaugh--No Count Blues
TTITLE10=Sarah Vaughn--The Man I Love
TTITLE11=Anita O'Day--God Bless The Child
EXTD=
EXTT0=
EXTT1=
EXTT2=
EXTT3=
EXTT4=My Man
EXTT5=
EXTT6=
EXTT7=
EXTT8=
EXTT9=
EXTT10=
EXTT11=
PLAYORDER=
